 <svg version="1.0" xmlns="http://www.w3.org/2000/svg" width="700.000000pt" height="394.000000pt" viewBox="0 0 700.000000 394.000000" preserveAspectRatio="xMidYMid meet">
<metadata>
Created by potrace 1.12, written by Peter Selinger 2001-2015
</metadata>
<g transform="translate(0.000000,394.000000) scale(0.100000,-0.100000)" fill="#000000" stroke="none">
<path d="M2856 3465 c-195 -49 -352 -202 -401 -390 -19 -75 -19 -214 0 -288
46 -176 188 -326 359 -379 99 -31 244 -30 336 1 91 32 143 65 215 137 70 71
115 151 141 254 21 84 14 230 -16 315 -52 150 -184 282 -335 336 -79 27 -218
34 -299 14z m247 -201 c60 -20 144 -96 180 -162 76 -139 49 -319 -65 -429
-103 -100 -252 -126 -380 -66 -81 38 -142 97 -176 172 -23 48 -27 69 -27 151
0 82 4 103 26 151 65 138 193 215 339 204 30 -2 77 -12 103 -21z"></path>
<path d="M531 3153 c-63 -164 -152 -394 -198 -511 -46 -118 -83 -218 -83 -223
0 -5 46 -9 103 -9 l102 0 39 105 38 105 217 0 216 0 40 -105 39 -105 104 0
c95 0 104 2 98 18 -4 9 -93 243 -199 519 l-192 503 -105 0 -105 0 -114 -297z
m289 -156 l66 -172 -68 -3 c-37 -2 -99 -2 -137 0 l-69 3 66 172 c37 95 69 173
72 173 3 0 34 -78 70 -173z"></path>
<path d="M1410 2930 l0 -520 95 0 95 0 2 342 3 342 225 -340 225 -339 93 -3
92 -3 0 521 0 520 -95 0 -95 0 -2 -340 -3 -341 -224 341 -224 340 -94 0 -93 0
0 -520z"></path>
<path d="M3610 3355 l0 -95 90 0 90 0 0 -425 0 -425 100 0 100 0 0 425 0 425
95 0 95 0 0 95 0 95 -285 0 -285 0 0 -95z"></path>
<path d="M4320 2930 l0 -520 100 0 100 0 0 230 0 230 180 0 180 0 0 -230 0
-230 95 0 95 0 0 520 0 520 -95 0 -95 0 0 -195 0 -195 -180 0 -180 0 0 195 0
195 -100 0 -99 0 -1 -520z"></path>
<path d="M5320 2930 l0 -520 280 0 280 0 0 95 0 95 -185 0 -185 0 0 140 0 140
185 0 185 0 0 95 0 95 -185 0 -185 0 0 95 0 95 185 0 185 0 0 95 0 95 -280 0
-280 0 0 -520z"></path>
<path d="M6090 2930 l0 -520 95 0 95 0 0 221 c0 198 2 220 16 217 10 -2 64
-92 131 -220 l115 -218 104 0 c57 0 104 2 104 5 0 3 -54 108 -121 232 -66 125
-117 229 -112 230 4 2 32 17 61 34 168 96 173 375 9 486 -65 44 -122 53 -322
53 l-175 0 0 -520z m371 314 c59 -30 73 -118 26 -162 -30 -27 -54 -33 -134
-34 l-68 -1 -3 106 -3 107 76 0 c49 0 87 -5 106 -16z"></path>
<path d="M380 1460 l0 -540 305 0 305 0 0 135 0 135 -140 0 -140 0 0 405 0
405 -165 0 -165 0 0 -540z"></path>
<path d="M1850 1460 l0 -540 305 0 305 0 0 135 0 135 -145 0 -145 0 0 65 0 65
100 0 100 0 0 135 0 135 -100 0 -100 0 0 70 0 70 145 0 145 0 0 135 0 135
-305 0 -305 0 0 -540z"></path>
<path d="M4580 1460 l0 -540 310 0 310 0 0 135 0 135 -145 0 -145 0 0 65 0 65
100 0 100 0 0 135 0 135 -100 0 -100 0 0 70 0 70 145 0 145 0 0 135 0 135
-310 0 -310 0 0 -540z"></path>
<path d="M6070 1460 l0 -540 305 0 305 0 0 135 0 135 -145 0 -145 0 0 405 0
405 -160 0 -160 0 0 -540z"></path>
<path d="M2954 1713 c3 -10 42 -173 87 -363 45 -190 94 -397 109 -460 l27
-115 -1434 -3 -1433 -2 0 -35 0 -35 1440 0 1440 0 9 -22 c4 -13 23 -89 41
-170 l33 -148 201 0 201 0 19 82 c10 46 27 122 38 171 l20 87 1470 0 1469 0
-3 33 -3 32 -1457 3 c-802 1 -1458 4 -1458 7 0 3 25 115 55 248 124 552 155
691 155 699 0 4 -91 8 -203 8 l-202 0 -50 -220 c-27 -121 -51 -220 -54 -220
-4 0 -29 98 -56 218 l-50 217 -208 3 c-196 2 -208 1 -203 -15z"></path>
</g>
</svg>